<svg id="Layer_1" data-name="Layer 1" xmlns="http://www.w3.org/2000/svg" viewBox="0 0 209.41 117.15"><defs><style>.cls-1{isolation:isolate;}.cls-2{fill:#fff;}</style></defs><title>logo</title><path d="M20.91,16.92,209.42,0,193.15,94.58,0,117.15Z" transform="translate(0 0)"/><g class="cls-1"><g class="cls-1"><path class="cls-2" d="M46.31,37.41v5h8.75v3.51H46.31v6.88H41.94V33.9H56.22v3.51Z" transform="translate(0 0)"/><path class="cls-2" d="M70.85,48.75H62.08l-1.67,4H55.93L64.35,33.9h4.32l8.45,18.89H72.53Zm-1.37-3.32-3-7.24-3,7.24Z" transform="translate(0 0)"/><path class="cls-2" d="M77.63,43.35c0-5.7,4.38-9.77,10.26-9.77a9.77,9.77,0,0,1,7.78,3.34l-2.81,2.59a6.1,6.1,0,0,0-4.75-2.21,5.8,5.8,0,0,0-6,6.05,5.79,5.79,0,0,0,6,6,6,6,0,0,0,4.75-2.24l2.81,2.6a9.74,9.74,0,0,1-7.8,3.37C82,53.12,77.63,49,77.63,43.35Z" transform="translate(0 0)"/><path class="cls-2" d="M112.24,47.15l2.81,2.6a9.63,9.63,0,0,1-7.39,3.37l-.25,1c1.65.19,2.35,1.14,2.35,2.24,0,1.65-1.56,2.68-4,2.68a5.41,5.41,0,0,1-2.51-.57l.65-1.81a4.14,4.14,0,0,0,1.75.41c1,0,1.41-.35,1.41-.87s-.38-.78-1.32-.78h-.92l.59-2.46A9.55,9.55,0,0,1,97,43.35c0-5.7,4.37-9.77,10.26-9.77a9.75,9.75,0,0,1,7.77,3.34l-2.81,2.59a6.08,6.08,0,0,0-4.75-2.21,5.79,5.79,0,0,0-6,6.05,5.79,5.79,0,0,0,6,6A6,6,0,0,0,112.24,47.15Z" transform="translate(0 0)"/><path class="cls-2" d="M130.06,48.75h-8.77l-1.67,4h-4.48l8.42-18.89h4.32l8.45,18.89h-4.59Zm-7.39-16.5h-2.13c0-2.4,1.26-3.94,3.15-3.94S126.5,30,127.47,30c.73,0,1.24-.57,1.3-1.46h2.13c-.05,2.32-1.27,3.86-3.16,3.86s-2.8-1.7-3.78-1.7C123.24,30.74,122.72,31.28,122.67,32.25Zm6,13.18-3-7.24-3,7.24Z" transform="translate(0 0)"/><path class="cls-2" d="M136.84,43.35c0-5.62,4.38-9.77,10.34-9.77s10.34,4.13,10.34,9.77-4.4,9.77-10.34,9.77S136.84,49,136.84,43.35Zm16.25,0a5.91,5.91,0,1,0-11.82,0,5.91,5.91,0,1,0,11.82,0Z" transform="translate(0 0)"/></g><g class="cls-1"><path class="cls-2" d="M41.28,70.35c0-5.7,4.37-9.77,10.26-9.77a9.75,9.75,0,0,1,7.77,3.34L56.5,66.51a6.1,6.1,0,0,0-4.75-2.21,6,6,0,0,0,0,12.09,6,6,0,0,0,4.75-2.24l2.81,2.6a9.73,9.73,0,0,1-7.8,3.37C45.65,80.12,41.28,76,41.28,70.35Z" transform="translate(0 0)"/><path class="cls-2" d="M74.32,75.75H65.55l-1.67,4H59.4L67.82,60.9h4.32l8.45,18.89H76ZM73,72.43l-3-7.24-3,7.24Z" transform="translate(0 0)"/><path class="cls-2" d="M82.56,60.9h4.38V79.79H82.56Z" transform="translate(0 0)"/><path class="cls-2" d="M107.8,67.76c0,4.21-3.16,6.82-8.2,6.82H95.79v5.21H91.42V60.9H99.6C104.64,60.9,107.8,63.52,107.8,67.76Zm-4.42,0c0-2.08-1.35-3.3-4-3.3H95.79V71h3.56C102,71,103.38,69.81,103.38,67.76Z" transform="translate(0 0)"/><path class="cls-2" d="M110.91,60.9h4.38V79.79h-4.38Z" transform="translate(0 0)"/><path class="cls-2" d="M131.81,79.79l-3.65-5.26h-4v5.26h-4.37V60.9H128c5,0,8.2,2.62,8.2,6.86a6.14,6.14,0,0,1-3.88,6l4.23,6.07ZM127.7,64.46h-3.56v6.59h3.56c2.68,0,4-1.24,4-3.29S130.38,64.46,127.7,64.46Z" transform="translate(0 0)"/><path class="cls-2" d="M152.06,75.75h-8.78l-1.67,4h-4.48l8.42-18.89h4.32l8.45,18.89h-4.59Zm-1.38-3.32-3-7.24-3,7.24Z" transform="translate(0 0)"/></g></g></svg>